<?xml version="1.0" standalone="no"?><!DOCTYPE svg PUBLIC "-//W3C//DTD SVG 1.1//EN" "http://www.w3.org/Graphics/SVG/1.1/DTD/svg11.dtd"><svg class="icon" width="200px" height="200.00px" viewBox="0 0 1024 1024" version="1.1" xmlns="http://www.w3.org/2000/svg"><path fill="#ffffff" d="M953.6 569.6c-19.2-51.2-44.8-96-70.4-121.6v-12.8c0-32-6.4-57.6-25.6-83.2C857.6 160 704 0 512 0 320 0 166.4 160 166.4 352c-19.2 25.6-25.6 57.6-25.6 83.2V448c-25.6 25.6-51.2 70.4-70.4 121.6-32 102.4-25.6 217.6 38.4 243.2 25.6 6.4 44.8 0 70.4-12.8-38.4 25.6-57.6 57.6-57.6 89.6 0 76.8 89.6 128 211.2 128 64 0 121.6-19.2 160-44.8h38.4c38.4 25.6 96 44.8 160 44.8 121.6 0 211.2-51.2 211.2-128 0-38.4-19.2-70.4-57.6-89.6 19.2 19.2 44.8 19.2 70.4 12.8 64-25.6 70.4-140.8 38.4-243.2zM896 768c-12.8 6.4-32-12.8-38.4-19.2-6.4-6.4-12.8-12.8-19.2-6.4-6.4 0-12.8 6.4-19.2 12.8-6.4 19.2-19.2 32-32 51.2-6.4 6.4-6.4 12.8-6.4 19.2 0 6.4 6.4 12.8 12.8 19.2 38.4 12.8 57.6 38.4 57.6 57.6 0 44.8-70.4 76.8-160 76.8-57.6 0-108.8-12.8-134.4-38.4-6.4-6.4-12.8-6.4-19.2-6.4h-51.2c-6.4 0-12.8 0-19.2 6.4-25.6 25.6-83.2 38.4-134.4 38.4-89.6 0-160-32-160-76.8 0-25.6 19.2-44.8 57.6-57.6 6.4 0 12.8-6.4 12.8-19.2 0-6.4 0-12.8-6.4-19.2-12.8-12.8-25.6-32-32-51.2-6.4-6.4-12.8-12.8-19.2-12.8-6.4 0-19.2 0-19.2 6.4-6.4 6.4-25.6 19.2-38.4 19.2-25.6-6.4-38.4-89.6-6.4-179.2 12.8-51.2 44.8-89.6 70.4-108.8 0-12.8 6.4-19.2 0-25.6v-19.2c0-19.2 6.4-44.8 19.2-64 0-6.4 6.4-12.8 6.4-12.8v-6.4C217.6 185.6 352 51.2 512 51.2s294.4 134.4 294.4 300.8v6.4c0 6.4 0 12.8 6.4 12.8 12.8 19.2 19.2 44.8 19.2 64v19.2c0 6.4 0 19.2 6.4 19.2 25.6 25.6 51.2 64 70.4 108.8 25.6 89.6 12.8 172.8-12.8 185.6z"  /></svg>